# xmcd
#
# Track frame offsets:
# 183
# 10908
# 21800
# 37608
# 45483
# 58773
# 67158
# 81108
# 91608
# 101733
# 115008
# 124563
# 134883
# 143958
#
# Disc length: 2234 seconds
#
#
# Revision: 2
# Processed by: cddbd v1.4PL0 Copyright (c) Steve Scherf et al.
# Submitted via: FreeRIP 2.35 
#
DISCID=b608b80e
DTITLE=Fats Domino - The Fats Domino Gold Collection
DYEAR=1956
DGENRE=Blues
TTITLE0=Blueberry Hill
TTITLE1=Blue Monday
TTITLE2=So Long
TTITLE3=Whole Lotta Loving
TTITLE4=Jambalaya (On The Bayou)
TTITLE5=Ballin'
TTITLE6=When the Saints Go Marchin' In
TTITLE7=I'm Walking
TTITLE8=My Blue Heaven
TTITLE9=Heartbreak Hill
TTITLE10=Walking to New Orleans
TTITLE11=Ain't That a Shame
TTITLE12=I'm Ready
TTITLE13=Domino Twist
EXTD=
EXTT0=
EXTT1=
EXTT2=
EXTT3=
EXTT4=
EXTT5=
EXTT6=
EXTT7=
EXTT8=
EXTT9=
EXTT10=
EXTT11=
EXTT12=
EXTT13=
PLAYORDER=
